# author: headus 3D tools
#  using: ply2obj v1.8
#   from: uvlayout v2.09.04
mtllib Ladrillo.mtl
# 48 vertices
v -0.61200000 0.03900000 2.87200000
v -0.59740301 0.02678301 2.90693404
v -0.60996701 0.02451002 2.86600904
v -0.59496601 0.00941001 2.89975096
v -0.58917005 0.00286000 2.88267304
v -0.60513301 0.01904700 2.85176399
v -0.02467796 0.02678301 2.99378397
v 0.00047900 0.03563701 2.97335793
v -0.02467796 0.00941001 2.98623182
v 0.00047900 0.02035301 2.96671393
v 0.00047900 0.01459100 2.95091583
v -0.02467796 0.00286000 2.96827485
v -0.60996701 0.26489602 2.86600904
v -0.59496601 0.27999602 2.89975096
v -0.60513301 0.27035900 2.85176399
v -0.58917005 0.28654600 2.88267304
v -0.59740301 0.26262298 2.90693404
v -0.61200000 0.25040500 2.87200000
v -0.02467796 0.27999602 2.98623182
v 0.00047900 0.26905300 2.96671393
v -0.02467796 0.28654600 2.96827485
v 0.00047900 0.27481498 2.95091583
v 0.00047900 0.25376900 2.97335793
v -0.02467796 0.26262298 2.99378397
v -0.51855905 0.03278600 2.59665586
v -0.48537702 0.01933201 2.57682394
v -0.51392902 0.03931200 2.58301092
v -0.47982602 0.02715600 2.56046582
v -0.47756003 0.04452700 2.55378890
v -0.51203799 0.05380100 2.57744190
v -0.02467796 0.01933201 2.64668704
v 0.00047900 0.02908201 2.66799188
v -0.02467796 0.02715600 2.62948682
v 0.00047900 0.03596601 2.65285994
v 0.00047900 0.05124799 2.64668300
v -0.02467796 0.04452700 2.62246586
v -0.51392902 0.25009298 2.58301092
v -0.47982602 0.26224900 2.56046582
v -0.51203799 0.23560402 2.57744190
v -0.47756003 0.24487800 2.55378890
v -0.48537702 0.27007398 2.57682394
v -0.51855905 0.25662000 2.59665586
v -0.02467796 0.26224900 2.62948682
v 0.00047900 0.25344000 2.65285994
v -0.02467796 0.24487800 2.62246586
v 0.00047900 0.23815700 2.64668300
v 0.00047900 0.26032300 2.66799188
v -0.02467796 0.27007398 2.64668704
# 88 normals
vn -0.118629 -0.939816 0.320179
vn -0.727248 -0.686047 0.016267
vn -0.493164 -0.848898 -0.189831
vn -0.007630 -0.999542 -0.029207
vn 0.559116 -0.778826 0.284075
vn 0.000305 -0.939449 0.342672
vn 0.012849 -0.999573 -0.025301
vn 0.409357 -0.912043 -0.022920
vn -0.142556 0.395196 0.907435
vn -0.921107 0.251938 0.296741
vn -0.922755 0.001129 0.385125
vn -0.162150 0.031343 0.986236
vn 0.662638 0.298541 0.686779
vn -0.133584 0.395105 0.908777
vn -0.139962 0.031343 0.989654
vn 0.630654 0.001526 0.775987
vn 0.132332 -0.370537 -0.919276
vn -0.591406 -0.220839 -0.775438
vn -0.565983 -0.001556 -0.824330
vn 0.133095 -0.034365 -0.990417
vn 0.704450 -0.265885 -0.657999
vn 0.144876 -0.370750 -0.917353
vn 0.162577 -0.034395 -0.986083
vn 0.693737 -0.002197 -0.720137
vn -0.008332 0.900903 -0.433742
vn -0.565800 0.652384 -0.504029
vn -0.493744 0.828481 -0.263963
vn -0.020234 0.996704 -0.077580
vn 0.575352 0.744400 -0.338644
vn 0.116432 0.904016 -0.411188
vn 0.033785 0.997131 -0.067265
vn 0.431209 0.896753 -0.098761
vn -0.162150 -0.031343 0.986236
vn -0.139962 -0.031343 0.989654
vn -0.020234 -0.996704 -0.077580
vn 0.033785 -0.997131 -0.067265
vn -0.007630 0.999542 -0.029207
vn 0.012849 0.999573 -0.025301
vn 0.133095 0.034365 -0.990417
vn 0.162577 0.034395 -0.986083
vn -0.142556 -0.395196 0.907435
vn -0.133584 -0.395105 0.908777
vn -0.118629 0.939816 0.320179
vn 0.000305 0.939449 0.342642
vn -0.008332 -0.900903 -0.433742
vn 0.116432 -0.904016 -0.411188
vn 0.132332 0.370537 -0.919276
vn 0.144876 0.370750 -0.917353
vn -0.922755 -0.001129 0.385125
vn -0.921107 -0.251907 0.296771
vn 0.630654 -0.001526 0.775987
vn 0.662638 -0.298541 0.686779
vn -0.727248 0.686016 0.016267
vn -0.493164 0.848898 -0.189831
vn 0.559116 0.778826 0.284075
vn 0.409357 0.912043 -0.022920
vn -0.493744 -0.828481 -0.263963
vn -0.565800 -0.652384 -0.504029
vn 0.431209 -0.896753 -0.098761
vn 0.575352 -0.744400 -0.338644
vn -0.591406 0.220839 -0.775438
vn -0.565983 0.001556 -0.824330
vn 0.704450 0.265885 -0.657999
vn 0.693737 0.002197 -0.720137
vn -0.946927 0.000000 -0.321278
vn -0.946927 0.000000 -0.321278
vn -0.946927 0.000000 -0.321278
vn -0.946927 0.000000 -0.321278
vn -0.946927 0.000000 -0.321278
vn -0.946927 0.000000 -0.321278
vn -0.946927 0.000000 -0.321278
vn -0.946927 0.000000 -0.321278
vn -0.946927 0.000000 -0.321278
vn -0.946927 0.000000 -0.321278
vn -0.946927 0.000000 -0.321278
vn -0.946927 0.000000 -0.321278
vn 1.000000 0.000000 0.000000
vn 1.000000 0.000000 0.000000
vn 1.000000 0.000000 0.000000
vn 1.000000 0.000000 0.000000
vn 1.000000 0.000000 0.000000
vn 1.000000 0.000000 0.000000
vn 1.000000 0.000000 0.000000
vn 1.000000 0.000000 0.000000
vn 1.000000 0.000000 0.000000
vn 1.000000 0.000000 0.000000
vn 1.000000 0.000000 0.000000
vn 1.000000 0.000000 0.000000
# 70 uv coords
vt 0.223649 0.658583
vt 0.212817 0.657454
vt 0.203869 0.665375
vt 0.499708 0.235840
vt 0.494379 0.225966
vt 0.498329 0.214155
vt 0.364777 0.757842
vt 0.360989 0.769177
vt 0.359496 0.748326
vt 0.650845 0.329100
vt 0.660134 0.320804
vt 0.639678 0.328104
vt 0.097055 0.845739
vt 0.094176 0.857205
vt 0.099793 0.866558
vt 0.628321 0.036553
vt 0.638127 0.029041
vt 0.649337 0.030416
vt 0.227453 0.945253
vt 0.216648 0.943769
vt 0.236874 0.938107
vt 0.775011 0.119266
vt 0.769340 0.109502
vt 0.771974 0.131242
vt 0.230233 0.628236
vt 0.218469 0.618721
vt 0.465416 0.244131
vt 0.478702 0.251326
vt 0.398377 0.737442
vt 0.384898 0.730343
vt 0.633742 0.353588
vt 0.645650 0.363066
vt 0.207275 0.608385
vt 0.451718 0.237605
vt 0.470037 0.234111
vt 0.652985 0.354687
vt 0.412373 0.743730
vt 0.657131 0.373158
vt 0.211789 0.626762
vt 0.393428 0.746769
vt 0.024606 0.435066
vt 0.224106 0.132463
vt 0.473318 0.215519
vt 0.657224 0.004171
vt 0.790342 0.091903
vt 0.668760 0.344320
vt 0.843418 0.541144
vt 0.643664 0.843579
vt 0.196583 0.636762
vt 0.390170 0.764676
vt 0.206934 0.975456
vt 0.074445 0.887919
vt 0.013611 0.424987
vt 0.210708 0.126031
vt 0.623171 0.010715
vt 0.639077 0.001946
vt 0.799536 0.107702
vt 0.797747 0.125775
vt 0.657358 0.849793
vt 0.854705 0.551001
vt 0.065265 0.872862
vt 0.067040 0.855417
vt 0.239730 0.969515
vt 0.224381 0.977989
vt 0.001946 0.416140
vt 0.198062 0.118673
vt 0.670186 0.857110
vt 0.866549 0.559805
vt 0.996642 0.645728
vt 0.800279 0.943033
# 46 polygons
usemtl initialShadingGroup
s 1
g ladrillo
f 4/39/1 3/2/2 6/3/3 5/49/4
f 10/5/5 9/35/6 12/43/7 11/6/8
s 2
f 14/40/9 13/7/10 18/9/11 17/30/12
f 20/10/13 19/36/14 24/31/15 23/12/16
s 3
f 28/61/17 27/14/18 30/15/19 29/52/20
f 34/17/21 33/56/22 36/44/23 35/18/24
s 4
f 38/64/25 37/19/26 42/21/27 41/63/28
f 44/22/29 43/57/30 48/58/31 47/24/32
s 2
f 2/25/33 7/28/34 24/31/15 17/30/12
s 1
f 12/34/7 5/33/4 26/41/35 31/42/36
s 4
f 16/37/37 21/38/38 48/47/31 41/48/28
s 3
f 36/69/23 29/70/20 40/67/39 45/68/40
s 2
f 2/25/33 4/26/41 9/27/42 7/28/34
s 1
f 4/26/1 5/33/4 12/34/7 9/27/6
s 4
f 16/37/37 14/29/43 19/32/44 21/38/38
s 2
f 14/29/9 17/30/12 24/31/15 19/32/14
s 1
f 26/41/35 28/53/45 33/54/46 31/42/36
s 3
f 28/53/17 29/65/20 36/66/23 33/54/22
f 40/67/39 38/59/47 43/60/48 45/68/40
s 4
f 38/59/25 41/48/28 48/47/31 43/60/30
s 2
f 2/25/33 1/1/49 3/2/50 4/39/41
f 8/4/51 7/28/34 9/35/42 10/5/52
s 4
f 13/7/53 14/40/43 16/50/37 15/8/54
s 2
f 1/1/49 2/25/33 17/30/12 18/9/11
s 4
f 19/36/44 20/10/55 22/11/56 21/46/38
s 2
f 7/28/34 8/4/51 23/12/16 24/31/15
s 1
f 5/49/4 6/3/3 25/13/57 26/62/35
f 26/62/35 25/13/57 27/14/58 28/61/45
f 11/6/8 12/43/7 31/55/36 32/16/59
f 32/16/59 31/55/36 33/56/46 34/17/60
s 3
f 37/19/61 38/64/47 40/51/39 39/20/62
f 29/52/20 30/15/19 39/20/62 40/51/39
s 4
f 15/8/54 16/50/37 41/63/28 42/21/27
s 3
f 43/57/48 44/22/63 46/23/64 45/45/40
f 35/18/24 36/44/23 45/45/40 46/23/64
s 4
f 21/46/38 22/11/56 47/24/32 48/58/31
s 7
f 25/13/65 6/3/66 3/2/67 27/14/68
f 37/19/69 13/7/70 15/8/71 42/21/72
f 39/20/73 18/9/74 13/7/70 37/19/69
f 30/15/75 1/1/76 18/9/74 39/20/73
f 27/14/68 3/2/67 1/1/76 30/15/75
s 9
f 11/6/77 32/16/78 34/17/79 10/5/80
f 20/10/81 44/22/82 47/24/83 22/11/84
f 23/12/85 46/23/86 44/22/82 20/10/81
f 8/4/87 35/18/88 46/23/86 23/12/85
f 10/5/80 34/17/79 35/18/88 8/4/87
# totals: 48 70 88 46
